# xmcd
#
# Track frame offsets: 
#        150
#        1855
#        20367
#        40694
#        54719
#        77334
#        91001
#        104030
#        116056
#        131689
#        154414
#        182611
#        201859
#
# Disc length: 3045 seconds
#
# Revision: 1
# Processed by: cddbd v1.5.2PL0 Copyright (c) Steve Scherf et al.
# Submitted via: ExactAudioCopy v0.99pb5
#
DISCID=9f0be30d
DTITLE=Various Artist - Destination Chicago: Blues Legends Of The Win
DTITLE=dy City
DYEAR=2001
DGENRE=Blues
TTITLE0=Tom Marker - Intro
TTITLE1=Luther Allison - Soul Fixin Man
TTITLE2=Carey Bell - Low Down Dirty Shame
TTITLE3=Koko Taylor - Let The Good Times Roll
TTITLE4=Syl Johnson - Take Me To The River
TTITLE5=Lonnie Brooks and Johnny Winter - Got Lucky Last Night
TTITLE6=Junior Wells and Buddy Guy - Hoo Doo Man Blues
TTITLE7=Sugar Blue - I Ain't Got You
TTITLE8=Floyd Dixon - Hey Bartender
TTITLE9=Son Seals - Frigidaire Woman
TTITLE10=Eddy Clearwater - Mayor Daley's Blues
TTITLE11=Magic Sam - Sweet Home Chicago
TTITLE12=Little Walter and Muddy Waters - Rollin And Tumblin
EXTD=YEAR: 2001
EXTT0=
EXTT1=
EXTT2=
EXTT3=
EXTT4=
EXTT5=
EXTT6=
EXTT7=
EXTT8=
EXTT9=
EXTT10=
EXTT11=
EXTT12=
PLAYORDER=
